# xmcd
#
# Track frame offsets:
#	150
#	15752
#	35342
#	49745
#	65757
#	79137
#	94617
#	114065
#	124045
#	151927
#	161632
#	177440
#	194557
#	206587
#	221117
#
# Disc length: 3232 seconds
#
# Revision: 5
# Processed by: cddbd v1.4PL0 Copyright (c) Steve Scherf et al.
# Submitted via: EasyCDDAExtractor 5.0.6
#
DISCID=c40c9e0f
DTITLE=лпеккоу сытгяиа лета то яелпетийо - Meta to rembetiko
DYEAR=1900
DGENRE=Blues
TTITLE0=Zeimpekiko
TTITLE1=Ela file
TTITLE2=Tis agapis
TTITLE3=To pitsirikaki
TTITLE4=O kosmos einai san mpakses
TTITLE5=Plateia Bathis
TTITLE6=Min klais
TTITLE7=Kapoio bradi to oneiro mou
TTITLE8=Den les koubenta
TTITLE9=Ntalika
TTITLE10=Ua me dikasei
TTITLE11=Bareuika tin monaxia
TTITLE12=M' adikides anatoli
TTITLE13=Kaymos paliou rembeti
TTITLE14=Ta teleytaia simata
EXTD=ID3G: 0
EXTT0=
EXTT1=
EXTT2=
EXTT3=
EXTT4=
EXTT5=
EXTT6=
EXTT7=
EXTT8=
EXTT9=
EXTT10=
EXTT11=
EXTT12=
EXTT13=
EXTT14=
PLAYORDER=
